<?xml version="1.0" encoding="UTF-8" standalone="no"?>
<!DOCTYPE svg PUBLIC "-//W3C//DTD SVG 1.1//EN" "http://www.w3.org/Graphics/SVG/1.1/DTD/svg11.dtd">
<svg width="100%" height="100%" viewBox="0 0 455 514" version="1.1" xmlns="http://www.w3.org/2000/svg" xmlns:xlink="http://www.w3.org/1999/xlink" xml:space="preserve" xmlns:serif="http://www.serif.com/" style="fill-rule:evenodd;clip-rule:evenodd;stroke-linejoin:round;stroke-miterlimit:2;">
    <g transform="matrix(1,0,0,1,-169.71,-143.125)">
        <g id="XMLID_155_" transform="matrix(1.04265,0,0,1.04265,140.126,143.125)">
            <path d="M57.907,374.126L72.029,431.186C83.42,471.402 159.457,492.736 246.368,492.736C332.371,492.736 410.326,470.957 420.715,431.186L434.836,374.119C374.672,399.95 310.568,413.157 246.36,413.157C182.168,413.156 118.063,399.949 57.907,374.126Z" style="fill:rgb(243,93,29);fill-rule:nonzero;"/>
        </g>
        <g id="XMLID_156_" transform="matrix(1.04265,0,0,1.04265,140.126,143.125)">
            <path d="M302.034,163.472C288.636,162.033 278.463,150.729 278.463,137.259L278.463,137.22C278.463,120.16 283.654,103.675 293.374,89.657C299.773,80.431 303.522,69.231 303.522,57.156C303.523,25.584 277.939,0 246.368,0C214.805,0 189.212,25.584 189.212,57.155C189.212,69.23 192.962,80.43 199.362,89.656C209.049,103.62 214.271,120.224 214.271,137.219L214.271,137.258C214.271,150.76 204.123,162.024 190.701,163.471C104.698,172.754 28.374,203.457 28.374,253.058C28.374,259.935 49.07,338.424 49.07,338.424C173.554,399.327 319.189,399.336 443.672,338.416C443.672,338.416 464.36,259.934 464.36,253.058C464.361,203.458 388.038,172.755 302.034,163.472ZM246.368,31.077C260.998,31.077 272.86,42.937 272.86,57.569C272.86,72.199 260.998,84.061 246.368,84.061C231.737,84.061 219.876,72.199 219.876,57.569C219.877,42.938 231.737,31.077 246.368,31.077ZM246.368,191.963C358.544,191.963 427.425,227.553 427.425,253.059C427.425,278.58 358.545,314.162 246.368,314.162C134.191,314.162 65.31,278.58 65.31,253.059C65.31,227.553 134.191,191.963 246.368,191.963Z" style="fill:rgb(243,93,29);fill-rule:nonzero;"/>
        </g>
    </g>
</svg>
